# Blender 5.1.0
# www.blender.org
mtllib King.mtl
o King
v 0.580767 0.536908 0.431822
v -0.112460 0.536908 0.144678
v 0.580767 0.439568 0.731643
v -0.399605 0.536908 -0.548550
v 0.580767 0.216439 0.728313
v 0.580767 -0.002837 1.261966
v 0.580766 -7.699002 2.201223
v 0.580767 -5.016027 0.858023
v -1.363617 -7.699002 1.395832
v -0.413831 -5.016027 0.446046
v -2.169006 -7.699002 -0.548552
v -0.825806 -5.016027 -0.548552
v 0.580767 -5.149059 1.126493
v 0.580767 -5.328671 1.139607
v -0.603668 -5.149059 0.635884
v -0.612941 -5.328671 0.645156
v -1.094276 -5.149059 -0.548552
v -1.107390 -5.328671 -0.548552
v 0.580766 -7.404430 2.191299
v -1.356600 -7.404430 1.388815
v -2.159081 -7.404430 -0.548552
v 0.580766 -6.330941 1.992937
v -1.216337 -6.330941 1.248551
v -1.960719 -6.330941 -0.548552
v 0.580766 -6.913476 1.671354
v -0.988943 -6.913476 1.021158
v -1.639137 -6.913476 -0.548552
v -0.380639 -2.677294 -0.548551
v -0.571993 -0.249701 -0.548551
v 0.580767 -0.249701 0.604210
v 0.580767 -2.677294 0.412856
v -0.234358 -0.249701 0.266574
v -0.099050 -2.677294 0.131266
v -0.699461 -0.002837 0.731677
v -0.322112 0.216439 0.354328
v -0.324466 0.439568 0.356683
v -1.229749 -0.002837 -0.548551
v -0.696096 0.216439 -0.548551
v -0.699426 0.439568 -0.548550
v -0.401906 0.909321 -0.548550
v -0.458232 0.975676 -0.548550
v -0.411066 1.036911 -0.548550
v -0.114088 0.909321 0.146305
v -0.153916 0.975676 0.186134
v -0.120565 1.036911 0.152782
v 0.580767 0.909321 0.434124
v 0.580767 0.975676 0.490449
v 0.580767 1.036911 0.443284
v -0.619003 2.469990 0.651220
v -1.115964 2.469990 -0.548550
v 0.580767 2.469990 1.148182
v 0.250974 2.878982 -0.548551
v 0.347568 2.878982 -0.315351
v 0.580767 2.878982 -0.218756
v 0.162493 3.052671 -0.548550
v 0.285003 3.052671 -0.252785
v 0.580767 3.052671 -0.130276
v 0.458555 3.311779 -0.517998
v 0.580767 3.311779 -0.372457
v 0.404674 3.311779 -0.548551
v 0.402329 3.248463 -0.548551
v 0.580767 -7.699002 -0.548551
v 0.454592 3.248463 -0.394933
v 0.580767 3.248463 -0.342669
v 0.580767 3.311779 -0.548551
v 0.456251 3.311779 -0.424033
v 0.580767 3.311779 -0.548551
v 0.458555 3.311779 -0.548551
v 0.580767 3.311779 -0.517998
v 0.580767 3.325403 -0.476926
v 0.580767 3.325403 -0.548551
v 0.294268 3.325403 -0.548551
v 0.294268 3.325403 -0.476926
v 0.580767 3.527026 -0.517998
v 0.580767 3.527026 -0.548551
v 0.458555 3.527026 -0.548551
v 0.458555 3.527026 -0.517998
v 0.580767 3.886678 -0.517998
v 0.580767 3.886678 -0.548551
v 0.458555 3.886678 -0.548551
v 0.458555 3.886678 -0.517998
v 0.580767 4.110097 -0.517998
v 0.580767 4.110097 -0.548551
v 0.287434 4.110097 -0.548551
v 0.287434 4.110097 -0.517998
v 0.207889 3.447683 -0.511257
v 0.207889 3.447683 -0.548551
v 0.207889 3.966021 -0.511257
v 0.207889 3.966021 -0.548551
v -0.580767 0.536908 0.431822
v 0.112460 0.536908 0.144678
v -0.580767 0.439568 0.731643
v 0.399605 0.536908 -0.548550
v -0.580767 0.216439 0.728313
v -0.580767 -0.002837 1.261966
v -0.580766 -7.699002 2.201223
v -0.580767 -5.016027 0.858023
v 1.363617 -7.699002 1.395832
v 0.413831 -5.016027 0.446046
v 2.169006 -7.699002 -0.548552
v 0.825806 -5.016027 -0.548552
v -0.580767 -5.149059 1.126493
v -0.580767 -5.328671 1.139607
v 0.603668 -5.149059 0.635884
v 0.612941 -5.328671 0.645156
v 1.094276 -5.149059 -0.548552
v 1.107390 -5.328671 -0.548552
v -0.580766 -7.404430 2.191299
v 1.356600 -7.404430 1.388815
v 2.159081 -7.404430 -0.548552
v -0.580766 -6.330941 1.992937
v 1.216337 -6.330941 1.248551
v 1.960719 -6.330941 -0.548552
v -0.580766 -6.913476 1.671354
v 0.988943 -6.913476 1.021158
v 1.639137 -6.913476 -0.548552
v 0.380639 -2.677294 -0.548551
v 0.571993 -0.249701 -0.548551
v -0.580767 -0.249701 0.604210
v -0.580767 -2.677294 0.412856
v 0.234358 -0.249701 0.266574
v 0.099050 -2.677294 0.131266
v 0.699461 -0.002837 0.731677
v 0.322112 0.216439 0.354328
v 0.324466 0.439568 0.356683
v 1.229749 -0.002837 -0.548551
v 0.696096 0.216439 -0.548551
v 0.699426 0.439568 -0.548550
v 0.401906 0.909321 -0.548550
v 0.458232 0.975676 -0.548550
v 0.411066 1.036911 -0.548550
v 0.114088 0.909321 0.146305
v 0.153916 0.975676 0.186134
v 0.120565 1.036911 0.152782
v -0.580767 0.909321 0.434124
v -0.580767 0.975676 0.490449
v -0.580767 1.036911 0.443284
v 0.619003 2.469990 0.651220
v 1.115964 2.469990 -0.548550
v -0.580767 2.469990 1.148182
v -0.250974 2.878982 -0.548551
v -0.347568 2.878982 -0.315351
v -0.580767 2.878982 -0.218756
v -0.162493 3.052671 -0.548550
v -0.285003 3.052671 -0.252785
v -0.580767 3.052671 -0.130276
v -0.458555 3.311779 -0.517998
v -0.580767 3.311779 -0.372457
v -0.404674 3.311779 -0.548551
v -0.402329 3.248463 -0.548551
v -0.580767 -7.699002 -0.548551
v -0.454592 3.248463 -0.394933
v -0.580767 3.248463 -0.342669
v -0.580767 3.311779 -0.548551
v -0.456251 3.311779 -0.424033
v -0.580767 3.311779 -0.548551
v -0.458555 3.311779 -0.548551
v -0.580767 3.311779 -0.517998
v -0.580767 3.325403 -0.476926
v -0.580767 3.325403 -0.548551
v -0.294268 3.325403 -0.548551
v -0.294268 3.325403 -0.476926
v -0.580767 3.527026 -0.517998
v -0.580767 3.527026 -0.548551
v -0.458555 3.527026 -0.548551
v -0.458555 3.527026 -0.517998
v -0.580767 3.886678 -0.517998
v -0.580767 3.886678 -0.548551
v -0.458555 3.886678 -0.548551
v -0.458555 3.886678 -0.517998
v -0.580767 4.110097 -0.517998
v -0.580767 4.110097 -0.548551
v -0.287434 4.110097 -0.548551
v -0.287434 4.110097 -0.517998
v -0.207889 3.447683 -0.511257
v -0.207889 3.447683 -0.548551
v -0.207889 3.966021 -0.511257
v -0.207889 3.966021 -0.548551
v 0.580767 0.536908 -0.431822
v -0.112460 0.536908 -0.144678
v 0.580767 0.439568 -0.731643
v -0.399605 0.536908 0.548550
v 0.580767 0.216439 -0.728313
v 0.580767 -0.002837 -1.261966
v 0.580766 -7.699002 -2.201223
v 0.580767 -5.016027 -0.858023
v -1.363617 -7.699002 -1.395832
v -0.413831 -5.016027 -0.446046
v -2.169006 -7.699002 0.548552
v -0.825806 -5.016027 0.548552
v 0.580767 -5.149059 -1.126493
v 0.580767 -5.328671 -1.139607
v -0.603668 -5.149059 -0.635884
v -0.612941 -5.328671 -0.645156
v -1.094276 -5.149059 0.548552
v -1.107390 -5.328671 0.548552
v 0.580766 -7.404430 -2.191299
v -1.356600 -7.404430 -1.388815
v -2.159081 -7.404430 0.548552
v 0.580766 -6.330941 -1.992937
v -1.216337 -6.330941 -1.248551
v -1.960719 -6.330941 0.548552
v 0.580766 -6.913476 -1.671354
v -0.988943 -6.913476 -1.021158
v -1.639137 -6.913476 0.548552
v -0.380639 -2.677294 0.548551
v -0.571993 -0.249701 0.548551
v 0.580767 -0.249701 -0.604210
v 0.580767 -2.677294 -0.412856
v -0.234358 -0.249701 -0.266574
v -0.099050 -2.677294 -0.131266
v -0.699461 -0.002837 -0.731677
v -0.322112 0.216439 -0.354328
v -0.324466 0.439568 -0.356683
v -1.229749 -0.002837 0.548551
v -0.696096 0.216439 0.548551
v -0.699426 0.439568 0.548550
v -0.401906 0.909321 0.548550
v -0.458232 0.975676 0.548550
v -0.411066 1.036911 0.548550
v -0.114088 0.909321 -0.146305
v -0.153916 0.975676 -0.186134
v -0.120565 1.036911 -0.152782
v 0.580767 0.909321 -0.434124
v 0.580767 0.975676 -0.490449
v 0.580767 1.036911 -0.443284
v -0.619003 2.469990 -0.651220
v -1.115964 2.469990 0.548550
v 0.580767 2.469990 -1.148182
v 0.250974 2.878982 0.548551
v 0.347568 2.878982 0.315351
v 0.580767 2.878982 0.218756
v 0.162493 3.052671 0.548550
v 0.285003 3.052671 0.252785
v 0.580767 3.052671 0.130276
v 0.458555 3.311779 0.517998
v 0.580767 3.311779 0.372457
v 0.404674 3.311779 0.548551
v 0.402329 3.248463 0.548551
v 0.580767 -7.699002 0.548551
v 0.454592 3.248463 0.394933
v 0.580767 3.248463 0.342669
v 0.580767 3.311779 0.548551
v 0.456251 3.311779 0.424033
v 0.580767 3.311779 0.548551
v 0.458555 3.311779 0.548551
v 0.580767 3.311779 0.517998
v 0.580767 3.325403 0.476926
v 0.580767 3.325403 0.548551
v 0.294268 3.325403 0.548551
v 0.294268 3.325403 0.476926
v 0.580767 3.527026 0.517998
v 0.580767 3.527026 0.548551
v 0.458555 3.527026 0.548551
v 0.458555 3.527026 0.517998
v 0.580767 3.886678 0.517998
v 0.580767 3.886678 0.548551
v 0.458555 3.886678 0.548551
v 0.458555 3.886678 0.517998
v 0.580767 4.110097 0.517998
v 0.580767 4.110097 0.548551
v 0.287434 4.110097 0.548551
v 0.287434 4.110097 0.517998
v 0.207889 3.447683 0.511257
v 0.207889 3.447683 0.548551
v 0.207889 3.966021 0.511257
v 0.207889 3.966021 0.548551
v -0.580767 0.536908 -0.431822
v 0.112460 0.536908 -0.144678
v -0.580767 0.439568 -0.731643
v 0.399605 0.536908 0.548550
v -0.580767 0.216439 -0.728313
v -0.580767 -0.002837 -1.261966
v -0.580766 -7.699002 -2.201223
v -0.580767 -5.016027 -0.858023
v 1.363617 -7.699002 -1.395832
v 0.413831 -5.016027 -0.446046
v 2.169006 -7.699002 0.548552
v 0.825806 -5.016027 0.548552
v -0.580767 -5.149059 -1.126493
v -0.580767 -5.328671 -1.139607
v 0.603668 -5.149059 -0.635884
v 0.612941 -5.328671 -0.645156
v 1.094276 -5.149059 0.548552
v 1.107390 -5.328671 0.548552
v -0.580766 -7.404430 -2.191299
v 1.356600 -7.404430 -1.388815
v 2.159081 -7.404430 0.548552
v -0.580766 -6.330941 -1.992937
v 1.216337 -6.330941 -1.248551
v 1.960719 -6.330941 0.548552
v -0.580766 -6.913476 -1.671354
v 0.988943 -6.913476 -1.021158
v 1.639137 -6.913476 0.548552
v 0.380639 -2.677294 0.548551
v 0.571993 -0.249701 0.548551
v -0.580767 -0.249701 -0.604210
v -0.580767 -2.677294 -0.412856
v 0.234358 -0.249701 -0.266574
v 0.099050 -2.677294 -0.131266
v 0.699461 -0.002837 -0.731677
v 0.322112 0.216439 -0.354328
v 0.324466 0.439568 -0.356683
v 1.229749 -0.002837 0.548551
v 0.696096 0.216439 0.548551
v 0.699426 0.439568 0.548550
v 0.401906 0.909321 0.548550
v 0.458232 0.975676 0.548550
v 0.411066 1.036911 0.548550
v 0.114088 0.909321 -0.146305
v 0.153916 0.975676 -0.186134
v 0.120565 1.036911 -0.152782
v -0.580767 0.909321 -0.434124
v -0.580767 0.975676 -0.490449
v -0.580767 1.036911 -0.443284
v 0.619003 2.469990 -0.651220
v 1.115964 2.469990 0.548550
v -0.580767 2.469990 -1.148182
v -0.250974 2.878982 0.548551
v -0.347568 2.878982 0.315351
v -0.580767 2.878982 0.218756
v -0.162493 3.052671 0.548550
v -0.285003 3.052671 0.252785
v -0.580767 3.052671 0.130276
v -0.458555 3.311779 0.517998
v -0.580767 3.311779 0.372457
v -0.404674 3.311779 0.548551
v -0.402329 3.248463 0.548551
v -0.580767 -7.699002 0.548551
v -0.454592 3.248463 0.394933
v -0.580767 3.248463 0.342669
v -0.580767 3.311779 0.548551
v -0.456251 3.311779 0.424033
v -0.580767 3.311779 0.548551
v -0.458555 3.311779 0.548551
v -0.580767 3.311779 0.517998
v -0.580767 3.325403 0.476926
v -0.580767 3.325403 0.548551
v -0.294268 3.325403 0.548551
v -0.294268 3.325403 0.476926
v -0.580767 3.527026 0.517998
v -0.580767 3.527026 0.548551
v -0.458555 3.527026 0.548551
v -0.458555 3.527026 0.517998
v -0.580767 3.886678 0.517998
v -0.580767 3.886678 0.548551
v -0.458555 3.886678 0.548551
v -0.458555 3.886678 0.517998
v -0.580767 4.110097 0.517998
v -0.580767 4.110097 0.548551
v -0.287434 4.110097 0.548551
v -0.287434 4.110097 0.517998
v -0.207889 3.447683 0.511257
v -0.207889 3.447683 0.548551
v -0.207889 3.966021 0.511257
v -0.207889 3.966021 0.548551
vn -0.3477 -0.9265 0.1440
vn -0.7270 -0.6171 0.3011
vn -0.7527 0.5798 0.3118
vn -0.9239 -0.0057 0.3827
vn -0.3409 -0.4543 0.8230
vn -0.3008 0.6182 0.7262
vn -0.6604 0.6994 0.2735
vn -0.1440 -0.9265 0.3477
vn -0.8230 -0.4543 0.3409
vn -0.3818 0.0673 0.9218
vn -0.1809 0.8812 0.4367
vn -0.3825 0.0311 0.9234
vn -0.9218 0.0673 0.3818
vn -0.4367 0.8812 0.1809
vn -0.9234 0.0311 0.3825
vn -0.2735 0.6994 0.6604
vn -0.7262 0.6182 0.3008
vn -0.9214 -0.0726 0.3817
vn -0.9099 0.1732 0.3769
vn -0.3817 -0.0726 0.9214
vn -0.3769 0.1732 0.9099
vn -0.1269 0.9434 0.3063
vn -0.3826 -0.0138 0.9238
vn -0.1555 0.9137 0.3754
vn -0.3063 0.9434 0.1269
vn -0.9238 -0.0138 0.3826
vn -0.3754 0.9137 0.1555
vn -0.3827 -0.0057 0.9239
vn -0.3118 0.5798 0.7527
vn -0.3011 -0.6171 0.7270
vn -0.8411 -0.4137 0.3484
vn -0.3484 -0.4137 0.8411
vn -0.1179 0.9514 0.2846
vn -0.2846 0.9514 0.1179
vn -0.8359 -0.4258 0.3463
vn -0.3463 -0.4258 0.8359
vn -0.9312 0.1093 0.3477
vn -0.3510 0.3986 0.8473
vn -0.2703 0.7079 0.6526
vn -0.6250 0.7418 0.2431
vn -0.0000 -1.0000 -0.0000
vn 1.0000 -0.0000 -0.0000
vn -0.0000 1.0000 -0.0000
vn -0.0000 -0.0000 -1.0000
vn -0.0000 -0.9491 0.3148
vn -0.0826 -0.9966 -0.0000
vn 0.3018 -0.9534 -0.0000
vn -0.7752 0.6317 -0.0000
vn -0.0000 0.1996 0.9799
vn -0.0000 -0.0000 1.0000
vn -0.7939 -0.6081 -0.0000
vn -1.0000 -0.0000 -0.0000
vn 0.0269 -0.0000 0.9996
vn 0.3018 0.9534 -0.0000
vn 0.3477 -0.9265 0.1440
vn 0.7270 -0.6171 0.3011
vn 0.7527 0.5798 0.3118
vn 0.9239 -0.0057 0.3827
vn 0.3409 -0.4543 0.8230
vn 0.3008 0.6182 0.7262
vn 0.6604 0.6994 0.2735
vn 0.1440 -0.9265 0.3477
vn 0.8230 -0.4543 0.3409
vn 0.3818 0.0673 0.9218
vn 0.1809 0.8812 0.4367
vn 0.3825 0.0311 0.9234
vn 0.9218 0.0673 0.3818
vn 0.4367 0.8812 0.1809
vn 0.9234 0.0311 0.3825
vn 0.2735 0.6994 0.6604
vn 0.7262 0.6182 0.3008
vn 0.9214 -0.0726 0.3817
vn 0.9099 0.1732 0.3769
vn 0.3817 -0.0726 0.9214
vn 0.3769 0.1732 0.9099
vn 0.1269 0.9434 0.3063
vn 0.3826 -0.0138 0.9238
vn 0.1555 0.9137 0.3754
vn 0.3063 0.9434 0.1269
vn 0.9238 -0.0138 0.3826
vn 0.3754 0.9137 0.1555
vn 0.3827 -0.0057 0.9239
vn 0.3118 0.5798 0.7527
vn 0.3011 -0.6171 0.7270
vn 0.8411 -0.4137 0.3484
vn 0.3484 -0.4137 0.8411
vn 0.1179 0.9514 0.2846
vn 0.2846 0.9514 0.1179
vn 0.8359 -0.4258 0.3463
vn 0.3463 -0.4258 0.8359
vn 0.9312 0.1093 0.3477
vn 0.3510 0.3986 0.8473
vn 0.2703 0.7079 0.6526
vn 0.6250 0.7418 0.2431
vn 0.0826 -0.9966 -0.0000
vn -0.3018 -0.9534 -0.0000
vn 0.7752 0.6317 -0.0000
vn 0.7939 -0.6081 -0.0000
vn -0.0269 -0.0000 0.9996
vn -0.3018 0.9534 -0.0000
vn -0.3477 -0.9265 -0.1440
vn -0.7270 -0.6171 -0.3011
vn -0.7527 0.5798 -0.3118
vn -0.9239 -0.0057 -0.3827
vn -0.3409 -0.4543 -0.8230
vn -0.3008 0.6182 -0.7262
vn -0.6604 0.6994 -0.2735
vn -0.1440 -0.9265 -0.3477
vn -0.8230 -0.4543 -0.3409
vn -0.3818 0.0673 -0.9218
vn -0.1809 0.8812 -0.4367
vn -0.3825 0.0311 -0.9234
vn -0.9218 0.0673 -0.3818
vn -0.4367 0.8812 -0.1809
vn -0.9234 0.0311 -0.3825
vn -0.2735 0.6994 -0.6604
vn -0.7262 0.6182 -0.3008
vn -0.9214 -0.0726 -0.3817
vn -0.9099 0.1732 -0.3769
vn -0.3817 -0.0726 -0.9214
vn -0.3769 0.1732 -0.9099
vn -0.1269 0.9434 -0.3063
vn -0.3826 -0.0138 -0.9238
vn -0.1555 0.9137 -0.3754
vn -0.3063 0.9434 -0.1269
vn -0.9238 -0.0138 -0.3826
vn -0.3754 0.9137 -0.1555
vn -0.3827 -0.0057 -0.9239
vn -0.3118 0.5798 -0.7527
vn -0.3011 -0.6171 -0.7270
vn -0.8411 -0.4137 -0.3484
vn -0.3484 -0.4137 -0.8411
vn -0.1179 0.9514 -0.2846
vn -0.2846 0.9514 -0.1179
vn -0.8359 -0.4258 -0.3463
vn -0.3463 -0.4258 -0.8359
vn -0.9312 0.1093 -0.3477
vn -0.3510 0.3986 -0.8473
vn -0.2703 0.7079 -0.6526
vn -0.6250 0.7418 -0.2431
vn -0.0000 -0.9491 -0.3148
vn -0.0000 0.1996 -0.9799
vn 0.0269 -0.0000 -0.9996
vn 0.3477 -0.9265 -0.1440
vn 0.7270 -0.6171 -0.3011
vn 0.7527 0.5798 -0.3118
vn 0.9239 -0.0057 -0.3827
vn 0.3409 -0.4543 -0.8230
vn 0.3008 0.6182 -0.7262
vn 0.6604 0.6994 -0.2735
vn 0.1440 -0.9265 -0.3477
vn 0.8230 -0.4543 -0.3409
vn 0.3818 0.0673 -0.9218
vn 0.1809 0.8812 -0.4367
vn 0.3825 0.0311 -0.9234
vn 0.9218 0.0673 -0.3818
vn 0.4367 0.8812 -0.1809
vn 0.9234 0.0311 -0.3825
vn 0.2735 0.6994 -0.6604
vn 0.7262 0.6182 -0.3008
vn 0.9214 -0.0726 -0.3817
vn 0.9099 0.1732 -0.3769
vn 0.3817 -0.0726 -0.9214
vn 0.3769 0.1732 -0.9099
vn 0.1269 0.9434 -0.3063
vn 0.3826 -0.0138 -0.9238
vn 0.1555 0.9137 -0.3754
vn 0.3063 0.9434 -0.1269
vn 0.9238 -0.0138 -0.3826
vn 0.3754 0.9137 -0.1555
vn 0.3827 -0.0057 -0.9239
vn 0.3118 0.5798 -0.7527
vn 0.3011 -0.6171 -0.7270
vn 0.8411 -0.4137 -0.3484
vn 0.3484 -0.4137 -0.8411
vn 0.1179 0.9514 -0.2846
vn 0.2846 0.9514 -0.1179
vn 0.8359 -0.4258 -0.3463
vn 0.3463 -0.4258 -0.8359
vn 0.9312 0.1093 -0.3477
vn 0.3510 0.3986 -0.8473
vn 0.2703 0.7079 -0.6526
vn 0.6250 0.7418 -0.2431
vn -0.0269 -0.0000 -0.9996
s 0
f 37//1 29//1 32//1 34//1
f 43//2 44//2 41//2 40//2
f 44//3 45//3 42//3 41//3
f 2//4 43//4 40//4 4//4
f 25//5 22//5 23//5 26//5
f 16//6 23//6 22//6 14//6
f 27//7 21//7 20//7 26//7
f 34//8 32//8 30//8 6//8
f 26//9 23//9 24//9 27//9
f 14//10 13//10 15//10 16//10
f 13//11 8//11 10//11 15//11
f 7//12 19//12 20//12 9//12
f 16//13 15//13 17//13 18//13
f 15//14 10//14 12//14 17//14
f 9//15 20//15 21//15 11//15
f 26//16 20//16 19//16 25//16
f 18//17 24//17 23//17 16//17
f 28//18 33//18 32//18 29//18
f 10//19 33//19 28//19 12//19
f 33//20 31//20 30//20 32//20
f 8//21 31//21 33//21 10//21
f 2//22 36//22 3//22 1//22
f 36//23 35//23 5//23 3//23
f 35//24 34//24 6//24 5//24
f 4//25 39//25 36//25 2//25
f 39//26 38//26 35//26 36//26
f 38//27 37//27 34//27 35//27
f 1//28 46//28 43//28 2//28
f 47//29 48//29 45//29 44//29
f 46//30 47//30 44//30 43//30
f 42//31 45//31 49//31 50//31
f 45//32 48//32 51//32 49//32
f 49//33 51//33 54//33 53//33
f 50//34 49//34 53//34 52//34
f 52//35 53//35 56//35 55//35
f 53//36 54//36 57//36 56//36
f 61//37 63//37 66//37 60//37
f 63//38 64//38 59//38 66//38
f 56//39 57//39 64//39 63//39
f 55//40 56//40 63//40 61//40
f 62//41 7//41 9//41 11//41
f 69//42 67//42 71//42 70//42
f 58//43 68//43 60//43 66//43
f 69//43 58//43 66//43 59//43
f 67//41 69//41 59//41 65//41
f 68//43 67//43 65//43 60//43
f 71//44 72//44 76//44 75//44
f 58//45 69//45 70//45 73//45
f 67//44 68//44 72//44 71//44
f 68//46 58//46 73//46 72//46
f 76//47 77//47 86//47 87//47
f 72//48 73//48 77//48 76//48
f 70//42 71//42 75//42 74//42
f 73//49 70//49 74//49 77//49
f 81//50 78//50 82//50 85//50
f 74//42 75//42 79//42 78//42
f 77//50 74//50 78//50 81//50
f 75//44 76//44 80//44 79//44
f 84//43 85//43 82//43 83//43
f 79//44 80//44 84//44 83//44
f 80//51 81//51 85//51 84//51
f 78//42 79//42 83//42 82//42
f 87//52 86//52 88//52 89//52
f 80//44 76//44 87//44 89//44
f 77//53 81//53 88//53 86//53
f 81//54 80//54 89//54 88//54
f 126//55 123//55 121//55 118//55
f 132//56 129//56 130//56 133//56
f 133//57 130//57 131//57 134//57
f 91//58 93//58 129//58 132//58
f 114//59 115//59 112//59 111//59
f 105//60 103//60 111//60 112//60
f 116//61 115//61 109//61 110//61
f 123//62 95//62 119//62 121//62
f 115//63 116//63 113//63 112//63
f 103//64 105//64 104//64 102//64
f 102//65 104//65 99//65 97//65
f 96//66 98//66 109//66 108//66
f 105//67 107//67 106//67 104//67
f 104//68 106//68 101//68 99//68
f 98//69 100//69 110//69 109//69
f 115//70 114//70 108//70 109//70
f 107//71 105//71 112//71 113//71
f 117//72 118//72 121//72 122//72
f 99//73 101//73 117//73 122//73
f 122//74 121//74 119//74 120//74
f 97//75 99//75 122//75 120//75
f 91//76 90//76 92//76 125//76
f 125//77 92//77 94//77 124//77
f 124//78 94//78 95//78 123//78
f 93//79 91//79 125//79 128//79
f 128//80 125//80 124//80 127//80
f 127//81 124//81 123//81 126//81
f 90//82 91//82 132//82 135//82
f 136//83 133//83 134//83 137//83
f 135//84 132//84 133//84 136//84
f 131//85 139//85 138//85 134//85
f 134//86 138//86 140//86 137//86
f 138//87 142//87 143//87 140//87
f 139//88 141//88 142//88 138//88
f 141//89 144//89 145//89 142//89
f 142//90 145//90 146//90 143//90
f 150//91 149//91 155//91 152//91
f 152//92 155//92 148//92 153//92
f 145//93 152//93 153//93 146//93
f 144//94 150//94 152//94 145//94
f 151//41 100//41 98//41 96//41
f 158//52 159//52 160//52 156//52
f 147//43 155//43 149//43 157//43
f 158//43 148//43 155//43 147//43
f 156//41 154//41 148//41 158//41
f 157//43 149//43 154//43 156//43
f 160//44 164//44 165//44 161//44
f 147//45 162//45 159//45 158//45
f 156//44 160//44 161//44 157//44
f 157//95 161//95 162//95 147//95
f 165//96 176//96 175//96 166//96
f 161//97 165//97 166//97 162//97
f 159//52 163//52 164//52 160//52
f 162//49 166//49 163//49 159//49
f 170//50 174//50 171//50 167//50
f 163//52 167//52 168//52 164//52
f 166//50 170//50 167//50 163//50
f 164//44 168//44 169//44 165//44
f 173//43 172//43 171//43 174//43
f 168//44 172//44 173//44 169//44
f 169//98 173//98 174//98 170//98
f 167//52 171//52 172//52 168//52
f 176//42 178//42 177//42 175//42
f 169//44 178//44 176//44 165//44
f 166//99 175//99 177//99 170//99
f 170//100 177//100 178//100 169//100
f 215//101 212//101 210//101 207//101
f 221//102 218//102 219//102 222//102
f 222//103 219//103 220//103 223//103
f 180//104 182//104 218//104 221//104
f 203//105 204//105 201//105 200//105
f 194//106 192//106 200//106 201//106
f 205//107 204//107 198//107 199//107
f 212//108 184//108 208//108 210//108
f 204//109 205//109 202//109 201//109
f 192//110 194//110 193//110 191//110
f 191//111 193//111 188//111 186//111
f 185//112 187//112 198//112 197//112
f 194//113 196//113 195//113 193//113
f 193//114 195//114 190//114 188//114
f 187//115 189//115 199//115 198//115
f 204//116 203//116 197//116 198//116
f 196//117 194//117 201//117 202//117
f 206//118 207//118 210//118 211//118
f 188//119 190//119 206//119 211//119
f 211//120 210//120 208//120 209//120
f 186//121 188//121 211//121 209//121
f 180//122 179//122 181//122 214//122
f 214//123 181//123 183//123 213//123
f 213//124 183//124 184//124 212//124
f 182//125 180//125 214//125 217//125
f 217//126 214//126 213//126 216//126
f 216//127 213//127 212//127 215//127
f 179//128 180//128 221//128 224//128
f 225//129 222//129 223//129 226//129
f 224//130 221//130 222//130 225//130
f 220//131 228//131 227//131 223//131
f 223//132 227//132 229//132 226//132
f 227//133 231//133 232//133 229//133
f 228//134 230//134 231//134 227//134
f 230//135 233//135 234//135 231//135
f 231//136 234//136 235//136 232//136
f 239//137 238//137 244//137 241//137
f 241//138 244//138 237//138 242//138
f 234//139 241//139 242//139 235//139
f 233//140 239//140 241//140 234//140
f 240//41 189//41 187//41 185//41
f 247//42 248//42 249//42 245//42
f 236//43 244//43 238//43 246//43
f 247//43 237//43 244//43 236//43
f 245//41 243//41 237//41 247//41
f 246//43 238//43 243//43 245//43
f 249//50 253//50 254//50 250//50
f 236//141 251//141 248//141 247//141
f 245//50 249//50 250//50 246//50
f 246//46 250//46 251//46 236//46
f 254//47 265//47 264//47 255//47
f 250//48 254//48 255//48 251//48
f 248//42 252//42 253//42 249//42
f 251//142 255//142 252//142 248//142
f 259//44 263//44 260//44 256//44
f 252//42 256//42 257//42 253//42
f 255//44 259//44 256//44 252//44
f 253//50 257//50 258//50 254//50
f 262//43 261//43 260//43 263//43
f 257//50 261//50 262//50 258//50
f 258//51 262//51 263//51 259//51
f 256//42 260//42 261//42 257//42
f 265//52 267//52 266//52 264//52
f 258//50 267//50 265//50 254//50
f 255//143 264//143 266//143 259//143
f 259//54 266//54 267//54 258//54
f 304//144 296//144 299//144 301//144
f 310//145 311//145 308//145 307//145
f 311//146 312//146 309//146 308//146
f 269//147 310//147 307//147 271//147
f 292//148 289//148 290//148 293//148
f 283//149 290//149 289//149 281//149
f 294//150 288//150 287//150 293//150
f 301//151 299//151 297//151 273//151
f 293//152 290//152 291//152 294//152
f 281//153 280//153 282//153 283//153
f 280//154 275//154 277//154 282//154
f 274//155 286//155 287//155 276//155
f 283//156 282//156 284//156 285//156
f 282//157 277//157 279//157 284//157
f 276//158 287//158 288//158 278//158
f 293//159 287//159 286//159 292//159
f 285//160 291//160 290//160 283//160
f 295//161 300//161 299//161 296//161
f 277//162 300//162 295//162 279//162
f 300//163 298//163 297//163 299//163
f 275//164 298//164 300//164 277//164
f 269//165 303//165 270//165 268//165
f 303//166 302//166 272//166 270//166
f 302//167 301//167 273//167 272//167
f 271//168 306//168 303//168 269//168
f 306//169 305//169 302//169 303//169
f 305//170 304//170 301//170 302//170
f 268//171 313//171 310//171 269//171
f 314//172 315//172 312//172 311//172
f 313//173 314//173 311//173 310//173
f 309//174 312//174 316//174 317//174
f 312//175 315//175 318//175 316//175
f 316//176 318//176 321//176 320//176
f 317//177 316//177 320//177 319//177
f 319//178 320//178 323//178 322//178
f 320//179 321//179 324//179 323//179
f 328//180 330//180 333//180 327//180
f 330//181 331//181 326//181 333//181
f 323//182 324//182 331//182 330//182
f 322//183 323//183 330//183 328//183
f 329//41 274//41 276//41 278//41
f 336//52 334//52 338//52 337//52
f 325//43 335//43 327//43 333//43
f 336//43 325//43 333//43 326//43
f 334//41 336//41 326//41 332//41
f 335//43 334//43 332//43 327//43
f 338//50 339//50 343//50 342//50
f 325//141 336//141 337//141 340//141
f 334//50 335//50 339//50 338//50
f 335//95 325//95 340//95 339//95
f 343//96 344//96 353//96 354//96
f 339//97 340//97 344//97 343//97
f 337//52 338//52 342//52 341//52
f 340//142 337//142 341//142 344//142
f 348//44 345//44 349//44 352//44
f 341//52 342//52 346//52 345//52
f 344//44 341//44 345//44 348//44
f 342//50 343//50 347//50 346//50
f 351//43 352//43 349//43 350//43
f 346//50 347//50 351//50 350//50
f 347//98 348//98 352//98 351//98
f 345//52 346//52 350//52 349//52
f 354//42 353//42 355//42 356//42
f 347//50 343//50 354//50 356//50
f 344//184 348//184 355//184 353//184
f 348//100 347//100 356//100 355//100
